<svg xmlns="http://www.w3.org/2000/svg" viewBox="0 0 1280 560" preserveAspectRatio="xMidYMid slice"><defs><linearGradient id="scrimL" x1="0" y1="0" x2="1" y2="0"><stop offset="0%" stop-color="#070910" stop-opacity="0.75"/><stop offset="45%" stop-color="#070910" stop-opacity="0.25"/><stop offset="100%" stop-color="#070910" stop-opacity="0"/></linearGradient><linearGradient id="scrimB" x1="0" y1="0" x2="0" y2="1"><stop offset="55%" stop-color="#070910" stop-opacity="0"/><stop offset="100%" stop-color="#070910" stop-opacity="0.55"/></linearGradient><linearGradient id="base" x1="0" y1="0" x2="0" y2="1"><stop offset="0%" stop-color="#0b0e16"/><stop offset="100%" stop-color="#0d1020"/></linearGradient><linearGradient id="ridgeA" x1="0" y1="0" x2="0" y2="1"><stop offset="0%" stop-color="#131829"/><stop offset="100%" stop-color="#0d1020"/></linearGradient><linearGradient id="ridgeB" x1="0" y1="0" x2="0" y2="1"><stop offset="0%" stop-color="#181f36"/><stop offset="100%" stop-color="#10142a"/></linearGradient><radialGradient id="sun" cx="78%" cy="18%" r="55%"><stop offset="0%" stop-color="#ff9f43" stop-opacity="0.5"/><stop offset="55%" stop-color="#ff9f43" stop-opacity="0.125"/><stop offset="100%" stop-color="#ff9f43" stop-opacity="0"/></radialGradient><radialGradient id="dusk" cx="8%" cy="95%" r="55%"><stop offset="0%" stop-color="#4b63d8" stop-opacity="0.35"/><stop offset="55%" stop-color="#4b63d8" stop-opacity="0.0875"/><stop offset="100%" stop-color="#4b63d8" stop-opacity="0"/></radialGradient><linearGradient id="arc" x1="0" y1="0" x2="1" y2="0"><stop offset="0%" stop-color="#ff9f43" stop-opacity="0"/><stop offset="45%" stop-color="#ffb357" stop-opacity="0.85"/><stop offset="100%" stop-color="#ff9f43" stop-opacity="0"/></linearGradient></defs><rect width="1280" height="560" fill="url(#base)"/><rect width="1280" height="560" fill="url(#dusk)"/><rect width="1280" height="560" fill="url(#sun)"/><circle cx="998" cy="104" r="46" fill="#ffb357" opacity="0.9"/><circle cx="998" cy="104" r="72" fill="none" stroke="#ffb357" stroke-opacity="0.25" stroke-width="2"/><g fill="#dfe6ff"><circle cx="150" cy="80" r="1.6" opacity="0.7"/><circle cx="260" cy="150" r="1.2" opacity="0.5"/><circle cx="420" cy="70" r="1.4" opacity="0.6"/><circle cx="90" cy="210" r="1.2" opacity="0.4"/><circle cx="560" cy="130" r="1.1" opacity="0.5"/><circle cx="340" cy="230" r="1.3" opacity="0.4"/><circle cx="700" cy="60" r="1.5" opacity="0.6"/><circle cx="1190" cy="220" r="1.2" opacity="0.5"/><circle cx="880" cy="190" r="1.1" opacity="0.4"/></g><path d="M 60 400 Q 640 120 1220 400" fill="none" stroke="url(#arc)" stroke-width="2.5" stroke-dasharray="1 7" stroke-linecap="round"/><path d="M0 430 L140 386 L300 424 L470 372 L640 418 L840 366 L1020 412 L1180 380 L1280 404 L1280 560 L0 560 Z" fill="url(#ridgeB)" opacity="0.9"/><path d="M0 478 L180 432 L360 472 L560 424 L760 468 L960 428 L1140 462 L1280 440 L1280 560 L0 560 Z" fill="url(#ridgeA)"/><rect width="1280" height="560" fill="url(#scrimL)"/><rect width="1280" height="560" fill="url(#scrimB)"/><rect width="1280" height="560" fill="none" stroke="rgba(255,255,255,0.05)"/></svg>
